<?xml version="1.0" standalone="no"?>
<!DOCTYPE svg PUBLIC "-//W3C//DTD SVG 20010904//EN"
 "http://www.w3.org/TR/2001/REC-SVG-20010904/DTD/svg10.dtd">
<svg version="1.0" xmlns="http://www.w3.org/2000/svg"
 width="512.000000pt" height="512.000000pt" viewBox="0 0 512.000000 512.000000"
 preserveAspectRatio="xMidYMid meet">
<metadata>
Created by potrace 1.14, written by Peter Selinger 2001-2017
</metadata>
<g transform="translate(0.000000,512.000000) scale(0.100000,-0.100000)"
fill="#000000" stroke="none">
<path d="M1349 4876 c-2 -2 -26 -7 -54 -10 -27 -4 -61 -9 -75 -11 -14 -3 -35
-7 -48 -10 -54 -10 -200 -59 -280 -94 -79 -34 -253 -135 -284 -164 -7 -7 -31
-25 -53 -42 -56 -42 -183 -171 -239 -243 -164 -214 -259 -439 -304 -726 -13
-81 -5 -408 12 -511 26 -157 79 -355 121 -450 7 -16 25 -59 40 -95 30 -72 117
-240 146 -282 11 -14 19 -28 19 -31 0 -14 220 -328 250 -357 3 -3 37 -43 77
-90 186 -221 479 -507 733 -716 19 -16 44 -37 55 -47 58 -53 125 -70 145 -37
4 7 27 -5 59 -31 40 -32 49 -44 40 -55 -23 -27 0 -70 64 -120 73 -58 301 -225
372 -274 28 -19 55 -38 60 -43 22 -19 230 -159 257 -173 17 -9 54 -18 82 -21
64 -7 117 14 214 85 37 26 80 56 97 66 16 11 34 23 40 28 5 4 90 65 187 135
252 182 638 486 734 578 6 5 46 41 90 79 102 90 433 422 504 506 30 36 57 67
60 70 16 14 174 226 227 305 216 325 364 687 399 980 3 22 9 67 13 100 13 92
5 379 -12 465 -25 121 -27 132 -49 200 -19 59 -42 115 -86 210 -25 55 -107
185 -159 253 -69 89 -187 207 -209 208 -32 2 -59 -2 -67 -11 -5 -4 -33 9 -62
29 -49 34 -52 38 -48 72 7 48 -12 64 -141 127 -142 70 -298 118 -446 139 -72
10 -340 10 -410 0 -286 -40 -590 -181 -793 -367 l-67 -62 -43 41 c-24 23 -54
49 -68 58 -13 10 -28 22 -34 28 -21 24 -144 103 -231 147 -111 58 -266 114
-365 133 -13 3 -49 10 -79 16 -51 10 -383 23 -391 15z"/>
</g>
</svg>
